<?xml version="1.0" encoding="UTF-8" standalone="no"?>
<!DOCTYPE svg PUBLIC "-//W3C//DTD SVG 1.1//EN" "http://www.w3.org/Graphics/SVG/1.1/DTD/svg11.dtd">
<!-- Created with matplotlib (http://matplotlib.org/) -->
<svg height="360pt" version="1.1" viewBox="0 0 504 360" width="504pt" xmlns="http://www.w3.org/2000/svg" xmlns:xlink="http://www.w3.org/1999/xlink">
 <defs>
  <style type="text/css">
*{stroke-linecap:butt;stroke-linejoin:round;stroke-miterlimit:100000;}
  </style>
 </defs>
 <g id="figure_1">
  <g id="patch_1">
   <path d="M 0 360  L 504 360  L 504 0  L 0 0  z " style="fill:none;"/>
  </g>
  <g id="axes_1">
   <g id="patch_2">
    <path d="M 65.3 308.2  L 481.8875 308.2  L 481.8875 25.8  L 65.3 25.8  z " style="fill:none;"/>
   </g>
   <g id="line2d_1">
    <path clip-path="url(#pfdb0b00072)" d="M -1 307.232768  L 2.811875 307.209835  L 23.64125 307.05628  L 44.470625 306.87272  L 65.3 306.641505  L 86.129375 306.35734  L 106.95875 305.995515  L 111.124625 305.91609  L 127.788125 305.374235  L 148.6175 304.286995  L 169.446875 303.24388  L 190.27625 301.787755  L 194.442125 301.402985  L 198.608 300.63874  L 202.773875 299.602685  L 206.93975 299.052005  L 211.105625 298.423665  L 215.2715 297.18287  L 219.437375 295.949135  L 223.60325 294.46477  L 227.769125 292.39266  L 231.935 291.105975  L 236.100875 289.60396  L 240.26675 287.392415  L 244.432625 283.78299  L 248.5985 278.77745  L 252.764375 274.86268  L 256.93025 269.46178  L 261.096125 263.369  L 265.262 254.754035  L 269.427875 244.82238  L 273.59375 233.37812  L 277.759625 219.750555  L 281.9255 204.080885  L 286.091375 187.09276  L 290.25725 168.314925  L 294.423125 148.50986  L 298.589 128.18765  L 302.754875 106.02278  L 306.92075 86.45952  L 311.086625 70.685715  L 315.2525 60.05865  L 319.418375 57.130515  L 323.58425 67.628735  L 327.750125 92.1993  L 331.916 124.48115  L 336.081875 160.047665  L 340.24775 192.371875  L 344.413625 216.845365  L 348.5795 234.047055  L 352.745375 242.24195  L 356.91125 251.954745  L 361.077125 256.988525  L 365.243 261.245705  L 369.408875 264.91867  L 373.57475 270.73964  L 377.740625 273.29889  L 381.9065 275.46984  L 398.57 282.157425  L 419.399375 287.55656  L 440.22875 291.215405  L 461.058125 293.79407  L 481.8875 295.726745  L 502.716875 297.212875  " style="fill:none;stroke:#d73027;stroke-linecap:square;stroke-width:2.0;"/>
   </g>
   <g id="line2d_2">
    <path clip-path="url(#pfdb0b00072)" d="M -1 307.265334  L 2.811875 307.24337  L 23.64125 306.95744  L 44.470625 306.765055  L 65.3 306.37146  L 86.129375 305.935505  L 106.95875 305.30893  L 111.124625 305.028295  L 127.788125 304.322295  L 148.6175 303.040905  L 169.446875 301.470055  L 190.27625 298.26658  L 194.442125 296.835165  L 198.608 295.878535  L 202.773875 294.508895  L 206.93975 292.920395  L 211.105625 291.57017  L 215.2715 289.902245  L 219.437375 287.53891  L 223.60325 285.47739  L 227.769125 283.717685  L 231.935 280.844265  L 236.100875 277.621375  L 240.26675 273.812505  L 244.432625 269.841255  L 248.5985 265.00692  L 252.764375 259.886655  L 256.93025 254.31808  L 261.096125 248.241185  L 265.262 241.700095  L 269.427875 234.594205  L 273.59375 227.163555  L 277.759625 219.284595  L 281.9255 211.147945  L 286.091375 202.654765  L 290.25725 194.027445  L 294.423125 185.64899  L 298.589 176.51335  L 302.754875 168.378465  L 306.92075 161.152555  L 311.086625 154.92034  L 315.2525 150.20426  L 319.418375 147.477335  L 323.58425 147.632655  L 327.750125 150.45842  L 331.916 157.25367  L 336.081875 166.9647  L 340.24775 179.155555  L 344.413625 193.19613  L 348.5795 207.872105  L 352.745375 222.18802  L 356.91125 234.46536  L 361.077125 244.753545  L 365.243 253.60855  L 369.408875 259.297145  L 373.57475 265.96708  L 377.740625 268.845795  L 381.9065 273.12592  L 398.57 280.38007  L 419.399375 286.22928  L 440.22875 291.06185  L 461.058125 293.654635  L 481.8875 295.585545  L 502.716875 297.08403  " style="fill:none;stroke:#247ba0;stroke-linecap:square;stroke-width:2.0;"/>
   </g>
   <g id="line2d_3">
    <path clip-path="url(#pfdb0b00072)" d="M -1 306.972459  L 2.811875 306.93273  L 23.64125 306.67504  L 44.470625 306.3644  L 65.3 305.900205  L 86.129375 305.247155  L 106.95875 304.35936  L 111.124625 303.979885  L 127.788125 303.588055  L 148.6175 301.328855  L 169.446875 297.68766  L 190.27625 292.863915  L 194.442125 290.696495  L 198.608 289.245665  L 202.773875 287.540675  L 206.93975 285.91158  L 211.105625 283.795345  L 215.2715 281.956215  L 219.437375 279.640535  L 223.60325 277.144825  L 227.769125 274.55557  L 231.935 271.79158  L 236.100875 268.852855  L 240.26675 265.75175  L 244.432625 262.50415  L 248.5985 259.13653  L 252.764375 255.58888  L 256.93025 251.922975  L 261.096125 248.138815  L 265.262 244.227575  L 269.427875 240.2122  L 273.59375 236.165055  L 277.759625 232.020835  L 281.9255 227.71953  L 286.091375 223.58943  L 290.25725 219.153985  L 294.423125 214.875625  L 298.589 211.073815  L 302.754875 207.180225  L 306.92075 203.611395  L 311.086625 200.31614  L 315.2525 197.59451  L 319.418375 195.67419  L 323.58425 194.32573  L 327.750125 193.99744  L 331.916 194.08922  L 336.081875 196.816145  L 340.24775 199.763695  L 344.413625 204.16384  L 348.5795 209.75536  L 352.745375 216.19761  L 356.91125 223.38116  L 361.077125 231.004195  L 365.243 238.61664  L 369.408875 246.1426  L 373.57475 252.98374  L 377.740625 259.03416  L 381.9065 263.90909  L 398.57 277.074225  L 419.399375 285.175575  L 440.22875 289.27214  L 461.058125 292.782725  L 481.8875 295.45317  L 502.716875 296.962245  " style="fill:none;stroke:#2daf6e;stroke-linecap:square;stroke-width:2.0;"/>
   </g>
   <g id="line2d_4">
    <path clip-path="url(#pfdb0b00072)" d="M -1 306.531117  L 2.811875 306.45618  L 23.64125 305.956685  L 44.470625 305.35835  L 65.3 304.629405  L 86.129375 303.753965  L 106.95875 301.4224  L 111.124625 300.84701  L 127.788125 298.27011  L 148.6175 294.318275  L 169.446875 289.72751  L 190.27625 284.571945  L 194.442125 283.46529  L 198.608 282.340985  L 202.773875 281.17785  L 206.93975 279.99883  L 211.105625 278.79157  L 215.2715 277.571955  L 219.437375 276.3241  L 223.60325 275.048005  L 227.769125 273.76132  L 231.935 272.44816  L 236.100875 271.136765  L 240.26675 269.80419  L 244.432625 268.425725  L 248.5985 267.045495  L 252.764375 265.658205  L 256.93025 264.267385  L 261.096125 262.89245  L 265.262 261.521045  L 269.427875 260.05433  L 273.59375 258.65998  L 277.759625 256.99735  L 281.9255 255.650655  L 286.091375 254.284545  L 290.25725 252.943145  L 294.423125 251.66705  L 298.589 250.475675  L 302.754875 249.247235  L 306.92075 248.198825  L 311.086625 247.132765  L 315.2525 246.2838  L 319.418375 245.448955  L 323.58425 244.84709  L 327.750125 244.432315  L 331.916 244.044015  L 336.081875 243.913405  L 340.24775 243.821625  L 344.413625 244.05284  L 348.5795 244.44467  L 352.745375 245.067715  L 356.91125 245.883145  L 361.077125 247.026865  L 365.243 248.28178  L 369.408875 249.766145  L 373.57475 251.757065  L 377.740625 253.638555  L 381.9065 255.675365  L 398.57 264.959265  L 419.399375 276.19702  L 440.22875 283.97361  L 461.058125 289.002095  L 481.8875 292.164975  L 502.716875 294.162955  " style="fill:none;stroke:#364652;stroke-linecap:square;stroke-width:2.0;"/>
   </g>
   <g id="line2d_5">
    <path clip-path="url(#pfdb0b00072)" d="M 314.294349 308.2  L 314.294349 25.8  " style="fill:none;stroke:#000000;stroke-dasharray:6.000000,6.000000;stroke-dashoffset:0.0;stroke-width:2.0;"/>
   </g>
   <g id="matplotlib.axis_1">
    <g id="xtick_1">
     <g id="line2d_6">
      <path clip-path="url(#pfdb0b00072)" d="M 65.3 308.2  L 65.3 25.8  " style="fill:none;opacity:0.4;stroke:#000000;stroke-dasharray:1.000000,3.000000;stroke-dashoffset:0.0;stroke-width:0.5;"/>
     </g>
     <g id="line2d_7">
      <defs>
       <path d="M 0 0  L 0 -4  " id="macfb09f5db" style="stroke:#000000;stroke-width:0.5;"/>
      </defs>
      <g>
       <use style="stroke:#000000;stroke-width:0.5;" x="65.3" xlink:href="#macfb09f5db" y="308.2"/>
      </g>
     </g>
     <g id="text_1">
      <!-- 150 -->
      <defs>
       <path d="M 10.796875 72.90625  L 49.515625 72.90625  L 49.515625 64.59375  L 19.828125 64.59375  L 19.828125 46.734375  Q 21.96875 47.46875 24.109375 47.828125  Q 26.265625 48.1875 28.421875 48.1875  Q 40.625 48.1875 47.75 41.5  Q 54.890625 34.8125 54.890625 23.390625  Q 54.890625 11.625 47.5625 5.09375  Q 40.234375 -1.421875 26.90625 -1.421875  Q 22.3125 -1.421875 17.546875 -0.640625  Q 12.796875 0.140625 7.71875 1.703125  L 7.71875 11.625  Q 12.109375 9.234375 16.796875 8.0625  Q 21.484375 6.890625 26.703125 6.890625  Q 35.15625 6.890625 40.078125 11.328125  Q 45.015625 15.765625 45.015625 23.390625  Q 45.015625 31 40.078125 35.4375  Q 35.15625 39.890625 26.703125 39.890625  Q 22.75 39.890625 18.8125 39.015625  Q 14.890625 38.140625 10.796875 36.28125  z " id="BitstreamVeraSans-Roman-35"/>
       <path d="M 31.78125 66.40625  Q 24.171875 66.40625 20.328125 58.90625  Q 16.5 51.421875 16.5 36.375  Q 16.5 21.390625 20.328125 13.890625  Q 24.171875 6.390625 31.78125 6.390625  Q 39.453125 6.390625 43.28125 13.890625  Q 47.125 21.390625 47.125 36.375  Q 47.125 51.421875 43.28125 58.90625  Q 39.453125 66.40625 31.78125 66.40625  M 31.78125 74.21875  Q 44.046875 74.21875 50.515625 64.515625  Q 56.984375 54.828125 56.984375 36.375  Q 56.984375 17.96875 50.515625 8.265625  Q 44.046875 -1.421875 31.78125 -1.421875  Q 19.53125 -1.421875 13.0625 8.265625  Q 6.59375 17.96875 6.59375 36.375  Q 6.59375 54.828125 13.0625 64.515625  Q 19.53125 74.21875 31.78125 74.21875  " id="BitstreamVeraSans-Roman-30"/>
       <path d="M 12.40625 8.296875  L 28.515625 8.296875  L 28.515625 63.921875  L 10.984375 60.40625  L 10.984375 69.390625  L 28.421875 72.90625  L 38.28125 72.90625  L 38.28125 8.296875  L 54.390625 8.296875  L 54.390625 0  L 12.40625 0  z " id="BitstreamVeraSans-Roman-31"/>
      </defs>
      <g transform="translate(53.8475 327.318125)scale(0.12 -0.12)">
       <use xlink:href="#BitstreamVeraSans-Roman-31"/>
       <use x="63.623046875" xlink:href="#BitstreamVeraSans-Roman-35"/>
       <use x="127.24609375" xlink:href="#BitstreamVeraSans-Roman-30"/>
      </g>
     </g>
    </g>
    <g id="xtick_2">
     <g id="line2d_8">
      <path clip-path="url(#pfdb0b00072)" d="M 148.6175 308.2  L 148.6175 25.8  " style="fill:none;opacity:0.4;stroke:#000000;stroke-dasharray:1.000000,3.000000;stroke-dashoffset:0.0;stroke-width:0.5;"/>
     </g>
     <g id="line2d_9">
      <g>
       <use style="stroke:#000000;stroke-width:0.5;" x="148.6175" xlink:href="#macfb09f5db" y="308.2"/>
      </g>
     </g>
     <g id="text_2">
      <!-- 170 -->
      <defs>
       <path d="M 8.203125 72.90625  L 55.078125 72.90625  L 55.078125 68.703125  L 28.609375 0  L 18.3125 0  L 43.21875 64.59375  L 8.203125 64.59375  z " id="BitstreamVeraSans-Roman-37"/>
      </defs>
      <g transform="translate(137.165 327.318125)scale(0.12 -0.12)">
       <use xlink:href="#BitstreamVeraSans-Roman-31"/>
       <use x="63.623046875" xlink:href="#BitstreamVeraSans-Roman-37"/>
       <use x="127.24609375" xlink:href="#BitstreamVeraSans-Roman-30"/>
      </g>
     </g>
    </g>
    <g id="xtick_3">
     <g id="line2d_10">
      <path clip-path="url(#pfdb0b00072)" d="M 231.935 308.2  L 231.935 25.8  " style="fill:none;opacity:0.4;stroke:#000000;stroke-dasharray:1.000000,3.000000;stroke-dashoffset:0.0;stroke-width:0.5;"/>
     </g>
     <g id="line2d_11">
      <g>
       <use style="stroke:#000000;stroke-width:0.5;" x="231.935" xlink:href="#macfb09f5db" y="308.2"/>
      </g>
     </g>
     <g id="text_3">
      <!-- 190 -->
      <defs>
       <path d="M 10.984375 1.515625  L 10.984375 10.5  Q 14.703125 8.734375 18.5 7.8125  Q 22.3125 6.890625 25.984375 6.890625  Q 35.75 6.890625 40.890625 13.453125  Q 46.046875 20.015625 46.78125 33.40625  Q 43.953125 29.203125 39.59375 26.953125  Q 35.25 24.703125 29.984375 24.703125  Q 19.046875 24.703125 12.671875 31.3125  Q 6.296875 37.9375 6.296875 49.421875  Q 6.296875 60.640625 12.9375 67.421875  Q 19.578125 74.21875 30.609375 74.21875  Q 43.265625 74.21875 49.921875 64.515625  Q 56.59375 54.828125 56.59375 36.375  Q 56.59375 19.140625 48.40625 8.859375  Q 40.234375 -1.421875 26.421875 -1.421875  Q 22.703125 -1.421875 18.890625 -0.6875  Q 15.09375 0.046875 10.984375 1.515625  M 30.609375 32.421875  Q 37.25 32.421875 41.125 36.953125  Q 45.015625 41.5 45.015625 49.421875  Q 45.015625 57.28125 41.125 61.84375  Q 37.25 66.40625 30.609375 66.40625  Q 23.96875 66.40625 20.09375 61.84375  Q 16.21875 57.28125 16.21875 49.421875  Q 16.21875 41.5 20.09375 36.953125  Q 23.96875 32.421875 30.609375 32.421875  " id="BitstreamVeraSans-Roman-39"/>
      </defs>
      <g transform="translate(220.4825 327.318125)scale(0.12 -0.12)">
       <use xlink:href="#BitstreamVeraSans-Roman-31"/>
       <use x="63.623046875" xlink:href="#BitstreamVeraSans-Roman-39"/>
       <use x="127.24609375" xlink:href="#BitstreamVeraSans-Roman-30"/>
      </g>
     </g>
    </g>
    <g id="xtick_4">
     <g id="line2d_12">
      <path clip-path="url(#pfdb0b00072)" d="M 315.2525 308.2  L 315.2525 25.8  " style="fill:none;opacity:0.4;stroke:#000000;stroke-dasharray:1.000000,3.000000;stroke-dashoffset:0.0;stroke-width:0.5;"/>
     </g>
     <g id="line2d_13">
      <g>
       <use style="stroke:#000000;stroke-width:0.5;" x="315.2525" xlink:href="#macfb09f5db" y="308.2"/>
      </g>
     </g>
     <g id="text_4">
      <!-- 210 -->
      <defs>
       <path d="M 19.1875 8.296875  L 53.609375 8.296875  L 53.609375 0  L 7.328125 0  L 7.328125 8.296875  Q 12.9375 14.109375 22.625 23.890625  Q 32.328125 33.6875 34.8125 36.53125  Q 39.546875 41.84375 41.421875 45.53125  Q 43.3125 49.21875 43.3125 52.78125  Q 43.3125 58.59375 39.234375 62.25  Q 35.15625 65.921875 28.609375 65.921875  Q 23.96875 65.921875 18.8125 64.3125  Q 13.671875 62.703125 7.8125 59.421875  L 7.8125 69.390625  Q 13.765625 71.78125 18.9375 73  Q 24.125 74.21875 28.421875 74.21875  Q 39.75 74.21875 46.484375 68.546875  Q 53.21875 62.890625 53.21875 53.421875  Q 53.21875 48.921875 51.53125 44.890625  Q 49.859375 40.875 45.40625 35.40625  Q 44.1875 33.984375 37.640625 27.21875  Q 31.109375 20.453125 19.1875 8.296875  " id="BitstreamVeraSans-Roman-32"/>
      </defs>
      <g transform="translate(303.8 327.318125)scale(0.12 -0.12)">
       <use xlink:href="#BitstreamVeraSans-Roman-32"/>
       <use x="63.623046875" xlink:href="#BitstreamVeraSans-Roman-31"/>
       <use x="127.24609375" xlink:href="#BitstreamVeraSans-Roman-30"/>
      </g>
     </g>
    </g>
    <g id="xtick_5">
     <g id="line2d_14">
      <path clip-path="url(#pfdb0b00072)" d="M 398.57 308.2  L 398.57 25.8  " style="fill:none;opacity:0.4;stroke:#000000;stroke-dasharray:1.000000,3.000000;stroke-dashoffset:0.0;stroke-width:0.5;"/>
     </g>
     <g id="line2d_15">
      <g>
       <use style="stroke:#000000;stroke-width:0.5;" x="398.57" xlink:href="#macfb09f5db" y="308.2"/>
      </g>
     </g>
     <g id="text_5">
      <!-- 230 -->
      <defs>
       <path d="M 40.578125 39.3125  Q 47.65625 37.796875 51.625 33  Q 55.609375 28.21875 55.609375 21.1875  Q 55.609375 10.40625 48.1875 4.484375  Q 40.765625 -1.421875 27.09375 -1.421875  Q 22.515625 -1.421875 17.65625 -0.515625  Q 12.796875 0.390625 7.625 2.203125  L 7.625 11.71875  Q 11.71875 9.328125 16.59375 8.109375  Q 21.484375 6.890625 26.8125 6.890625  Q 36.078125 6.890625 40.9375 10.546875  Q 45.796875 14.203125 45.796875 21.1875  Q 45.796875 27.640625 41.28125 31.265625  Q 36.765625 34.90625 28.71875 34.90625  L 20.21875 34.90625  L 20.21875 43.015625  L 29.109375 43.015625  Q 36.375 43.015625 40.234375 45.921875  Q 44.09375 48.828125 44.09375 54.296875  Q 44.09375 59.90625 40.109375 62.90625  Q 36.140625 65.921875 28.71875 65.921875  Q 24.65625 65.921875 20.015625 65.03125  Q 15.375 64.15625 9.8125 62.3125  L 9.8125 71.09375  Q 15.4375 72.65625 20.34375 73.4375  Q 25.25 74.21875 29.59375 74.21875  Q 40.828125 74.21875 47.359375 69.109375  Q 53.90625 64.015625 53.90625 55.328125  Q 53.90625 49.265625 50.4375 45.09375  Q 46.96875 40.921875 40.578125 39.3125  " id="BitstreamVeraSans-Roman-33"/>
      </defs>
      <g transform="translate(387.1175 327.318125)scale(0.12 -0.12)">
       <use xlink:href="#BitstreamVeraSans-Roman-32"/>
       <use x="63.623046875" xlink:href="#BitstreamVeraSans-Roman-33"/>
       <use x="127.24609375" xlink:href="#BitstreamVeraSans-Roman-30"/>
      </g>
     </g>
    </g>
    <g id="xtick_6">
     <g id="line2d_16">
      <path clip-path="url(#pfdb0b00072)" d="M 481.8875 308.2  L 481.8875 25.8  " style="fill:none;opacity:0.4;stroke:#000000;stroke-dasharray:1.000000,3.000000;stroke-dashoffset:0.0;stroke-width:0.5;"/>
     </g>
     <g id="line2d_17">
      <g>
       <use style="stroke:#000000;stroke-width:0.5;" x="481.8875" xlink:href="#macfb09f5db" y="308.2"/>
      </g>
     </g>
     <g id="text_6">
      <!-- 250 -->
      <g transform="translate(470.435 327.318125)scale(0.12 -0.12)">
       <use xlink:href="#BitstreamVeraSans-Roman-32"/>
       <use x="63.623046875" xlink:href="#BitstreamVeraSans-Roman-35"/>
       <use x="127.24609375" xlink:href="#BitstreamVeraSans-Roman-30"/>
      </g>
     </g>
    </g>
    <g id="text_7">
     <!-- Strike Price -->
     <defs>
      <path d="M 59.90625 70.609375  L 59.90625 55.171875  Q 53.90625 57.859375 48.1875 59.21875  Q 42.484375 60.59375 37.40625 60.59375  Q 30.671875 60.59375 27.4375 58.734375  Q 24.21875 56.890625 24.21875 52.984375  Q 24.21875 50.046875 26.390625 48.40625  Q 28.5625 46.78125 34.28125 45.609375  L 42.28125 44  Q 54.4375 41.546875 59.5625 36.5625  Q 64.703125 31.59375 64.703125 22.40625  Q 64.703125 10.359375 57.546875 4.46875  Q 50.390625 -1.421875 35.6875 -1.421875  Q 28.765625 -1.421875 21.78125 -0.09375  Q 14.796875 1.21875 7.8125 3.8125  L 7.8125 19.671875  Q 14.796875 15.96875 21.3125 14.078125  Q 27.828125 12.203125 33.890625 12.203125  Q 40.046875 12.203125 43.3125 14.25  Q 46.578125 16.3125 46.578125 20.125  Q 46.578125 23.53125 44.359375 25.390625  Q 42.140625 27.25 35.5 28.71875  L 28.21875 30.328125  Q 17.28125 32.671875 12.21875 37.796875  Q 7.171875 42.921875 7.171875 51.609375  Q 7.171875 62.5 14.203125 68.359375  Q 21.234375 74.21875 34.421875 74.21875  Q 40.4375 74.21875 46.78125 73.3125  Q 53.125 72.40625 59.90625 70.609375  " id="BitstreamVeraSans-Bold-53"/>
      <path d="M 8.40625 75.984375  L 25.875 75.984375  L 25.875 34.625  L 46 54.6875  L 66.3125 54.6875  L 39.59375 29.59375  L 68.40625 0  L 47.21875 0  L 25.875 22.796875  L 25.875 0  L 8.40625 0  z " id="BitstreamVeraSans-Bold-6b"/>
      <path d="M 52.59375 52.984375  L 52.59375 38.71875  Q 49.03125 41.15625 45.4375 42.328125  Q 41.84375 43.5 37.984375 43.5  Q 30.671875 43.5 26.59375 39.234375  Q 22.515625 34.96875 22.515625 27.296875  Q 22.515625 19.625 26.59375 15.34375  Q 30.671875 11.078125 37.984375 11.078125  Q 42.09375 11.078125 45.78125 12.296875  Q 49.46875 13.53125 52.59375 15.921875  L 52.59375 1.609375  Q 48.484375 0.09375 44.265625 -0.65625  Q 40.046875 -1.421875 35.796875 -1.421875  Q 21 -1.421875 12.640625 6.171875  Q 4.296875 13.765625 4.296875 27.296875  Q 4.296875 40.828125 12.640625 48.40625  Q 21 56 35.796875 56  Q 40.09375 56 44.265625 55.25  Q 48.4375 54.5 52.59375 52.984375  " id="BitstreamVeraSans-Bold-63"/>
      <path d="M 27.484375 70.21875  L 27.484375 54.6875  L 45.515625 54.6875  L 45.515625 42.1875  L 27.484375 42.1875  L 27.484375 19  Q 27.484375 15.1875 29 13.84375  Q 30.515625 12.5 35.015625 12.5  L 44 12.5  L 44 0  L 29 0  Q 18.65625 0 14.328125 4.3125  Q 10.015625 8.640625 10.015625 19  L 10.015625 42.1875  L 1.3125 42.1875  L 1.3125 54.6875  L 10.015625 54.6875  L 10.015625 70.21875  z " id="BitstreamVeraSans-Bold-74"/>
      <path d="M 49.03125 39.796875  Q 46.734375 40.875 44.453125 41.375  Q 42.1875 41.890625 39.890625 41.890625  Q 33.15625 41.890625 29.515625 37.5625  Q 25.875 33.25 25.875 25.203125  L 25.875 0  L 8.40625 0  L 8.40625 54.6875  L 25.875 54.6875  L 25.875 45.703125  Q 29.25 51.078125 33.609375 53.53125  Q 37.984375 56 44.09375 56  Q 44.96875 56 45.984375 55.921875  Q 47.015625 55.859375 48.96875 55.609375  z " id="BitstreamVeraSans-Bold-72"/>
      <path d="M 62.984375 27.484375  L 62.984375 22.515625  L 22.125 22.515625  Q 22.75 16.359375 26.5625 13.28125  Q 30.375 10.203125 37.203125 10.203125  Q 42.71875 10.203125 48.5 11.84375  Q 54.296875 13.484375 60.40625 16.796875  L 60.40625 3.328125  Q 54.203125 0.984375 48 -0.21875  Q 41.796875 -1.421875 35.59375 -1.421875  Q 20.75 -1.421875 12.515625 6.125  Q 4.296875 13.671875 4.296875 27.296875  Q 4.296875 40.671875 12.375 48.328125  Q 20.453125 56 34.625 56  Q 47.515625 56 55.25 48.234375  Q 62.984375 40.484375 62.984375 27.484375  M 45.015625 33.296875  Q 45.015625 38.28125 42.109375 41.328125  Q 39.203125 44.390625 34.515625 44.390625  Q 29.4375 44.390625 26.265625 41.53125  Q 23.09375 38.671875 22.3125 33.296875  z " id="BitstreamVeraSans-Bold-65"/>
      <path d="M 8.40625 54.6875  L 25.875 54.6875  L 25.875 0  L 8.40625 0  z M 8.40625 75.984375  L 25.875 75.984375  L 25.875 61.71875  L 8.40625 61.71875  z " id="BitstreamVeraSans-Bold-69"/>
      <path d="M 9.1875 72.90625  L 40.375 72.90625  Q 54.296875 72.90625 61.734375 66.71875  Q 69.1875 60.546875 69.1875 49.125  Q 69.1875 37.640625 61.734375 31.46875  Q 54.296875 25.296875 40.375 25.296875  L 27.984375 25.296875  L 27.984375 0  L 9.1875 0  z M 27.984375 59.28125  L 27.984375 38.921875  L 38.375 38.921875  Q 43.84375 38.921875 46.828125 41.578125  Q 49.8125 44.234375 49.8125 49.125  Q 49.8125 54 46.828125 56.640625  Q 43.84375 59.28125 38.375 59.28125  z " id="BitstreamVeraSans-Bold-50"/>
      <path id="BitstreamVeraSans-Bold-20"/>
     </defs>
     <g transform="translate(234.2028125 343.931875)scale(0.12 -0.12)">
      <use xlink:href="#BitstreamVeraSans-Bold-53"/>
      <use x="72.021484375" xlink:href="#BitstreamVeraSans-Bold-74"/>
      <use x="119.82421875" xlink:href="#BitstreamVeraSans-Bold-72"/>
      <use x="169.140625" xlink:href="#BitstreamVeraSans-Bold-69"/>
      <use x="203.41796875" xlink:href="#BitstreamVeraSans-Bold-6b"/>
      <use x="269.890625" xlink:href="#BitstreamVeraSans-Bold-65"/>
      <use x="337.712890625" xlink:href="#BitstreamVeraSans-Bold-20"/>
      <use x="372.52734375" xlink:href="#BitstreamVeraSans-Bold-50"/>
      <use x="445.818359375" xlink:href="#BitstreamVeraSans-Bold-72"/>
      <use x="495.134765625" xlink:href="#BitstreamVeraSans-Bold-69"/>
      <use x="529.412109375" xlink:href="#BitstreamVeraSans-Bold-63"/>
      <use x="588.689453125" xlink:href="#BitstreamVeraSans-Bold-65"/>
     </g>
    </g>
   </g>
   <g id="matplotlib.axis_2">
    <g id="ytick_1">
     <g id="line2d_18">
      <path clip-path="url(#pfdb0b00072)" d="M 65.3 308.2  L 481.8875 308.2  " style="fill:none;opacity:0.4;stroke:#000000;stroke-dasharray:1.000000,3.000000;stroke-dashoffset:0.0;stroke-width:0.5;"/>
     </g>
     <g id="line2d_19">
      <defs>
       <path d="M 0 0  L 4 0  " id="m0f0e7a2405" style="stroke:#000000;stroke-width:0.5;"/>
      </defs>
      <g>
       <use style="stroke:#000000;stroke-width:0.5;" x="65.3" xlink:href="#m0f0e7a2405" y="308.2"/>
      </g>
     </g>
     <g id="text_8">
      <!-- 0.00 -->
      <defs>
       <path d="M 10.6875 12.40625  L 21 12.40625  L 21 0  L 10.6875 0  z " id="BitstreamVeraSans-Roman-2e"/>
      </defs>
      <g transform="translate(28.58125 311.51125)scale(0.12 -0.12)">
       <use xlink:href="#BitstreamVeraSans-Roman-30"/>
       <use x="63.623046875" xlink:href="#BitstreamVeraSans-Roman-2e"/>
       <use x="95.41015625" xlink:href="#BitstreamVeraSans-Roman-30"/>
       <use x="159.033203125" xlink:href="#BitstreamVeraSans-Roman-30"/>
      </g>
     </g>
    </g>
    <g id="ytick_2">
     <g id="line2d_20">
      <path clip-path="url(#pfdb0b00072)" d="M 65.3 272.9  L 481.8875 272.9  " style="fill:none;opacity:0.4;stroke:#000000;stroke-dasharray:1.000000,3.000000;stroke-dashoffset:0.0;stroke-width:0.5;"/>
     </g>
     <g id="line2d_21">
      <g>
       <use style="stroke:#000000;stroke-width:0.5;" x="65.3" xlink:href="#m0f0e7a2405" y="272.9"/>
      </g>
     </g>
     <g id="text_9">
      <!-- 0.01 -->
      <g transform="translate(28.58125 276.21125)scale(0.12 -0.12)">
       <use xlink:href="#BitstreamVeraSans-Roman-30"/>
       <use x="63.623046875" xlink:href="#BitstreamVeraSans-Roman-2e"/>
       <use x="95.41015625" xlink:href="#BitstreamVeraSans-Roman-30"/>
       <use x="159.033203125" xlink:href="#BitstreamVeraSans-Roman-31"/>
      </g>
     </g>
    </g>
    <g id="ytick_3">
     <g id="line2d_22">
      <path clip-path="url(#pfdb0b00072)" d="M 65.3 237.6  L 481.8875 237.6  " style="fill:none;opacity:0.4;stroke:#000000;stroke-dasharray:1.000000,3.000000;stroke-dashoffset:0.0;stroke-width:0.5;"/>
     </g>
     <g id="line2d_23">
      <g>
       <use style="stroke:#000000;stroke-width:0.5;" x="65.3" xlink:href="#m0f0e7a2405" y="237.6"/>
      </g>
     </g>
     <g id="text_10">
      <!-- 0.02 -->
      <g transform="translate(28.58125 240.91125)scale(0.12 -0.12)">
       <use xlink:href="#BitstreamVeraSans-Roman-30"/>
       <use x="63.623046875" xlink:href="#BitstreamVeraSans-Roman-2e"/>
       <use x="95.41015625" xlink:href="#BitstreamVeraSans-Roman-30"/>
       <use x="159.033203125" xlink:href="#BitstreamVeraSans-Roman-32"/>
      </g>
     </g>
    </g>
    <g id="ytick_4">
     <g id="line2d_24">
      <path clip-path="url(#pfdb0b00072)" d="M 65.3 202.3  L 481.8875 202.3  " style="fill:none;opacity:0.4;stroke:#000000;stroke-dasharray:1.000000,3.000000;stroke-dashoffset:0.0;stroke-width:0.5;"/>
     </g>
     <g id="line2d_25">
      <g>
       <use style="stroke:#000000;stroke-width:0.5;" x="65.3" xlink:href="#m0f0e7a2405" y="202.3"/>
      </g>
     </g>
     <g id="text_11">
      <!-- 0.03 -->
      <g transform="translate(28.58125 205.61125)scale(0.12 -0.12)">
       <use xlink:href="#BitstreamVeraSans-Roman-30"/>
       <use x="63.623046875" xlink:href="#BitstreamVeraSans-Roman-2e"/>
       <use x="95.41015625" xlink:href="#BitstreamVeraSans-Roman-30"/>
       <use x="159.033203125" xlink:href="#BitstreamVeraSans-Roman-33"/>
      </g>
     </g>
    </g>
    <g id="ytick_5">
     <g id="line2d_26">
      <path clip-path="url(#pfdb0b00072)" d="M 65.3 167  L 481.8875 167  " style="fill:none;opacity:0.4;stroke:#000000;stroke-dasharray:1.000000,3.000000;stroke-dashoffset:0.0;stroke-width:0.5;"/>
     </g>
     <g id="line2d_27">
      <g>
       <use style="stroke:#000000;stroke-width:0.5;" x="65.3" xlink:href="#m0f0e7a2405" y="167.0"/>
      </g>
     </g>
     <g id="text_12">
      <!-- 0.04 -->
      <defs>
       <path d="M 37.796875 64.3125  L 12.890625 25.390625  L 37.796875 25.390625  z M 35.203125 72.90625  L 47.609375 72.90625  L 47.609375 25.390625  L 58.015625 25.390625  L 58.015625 17.1875  L 47.609375 17.1875  L 47.609375 0  L 37.796875 0  L 37.796875 17.1875  L 4.890625 17.1875  L 4.890625 26.703125  z " id="BitstreamVeraSans-Roman-34"/>
      </defs>
      <g transform="translate(28.58125 170.31125)scale(0.12 -0.12)">
       <use xlink:href="#BitstreamVeraSans-Roman-30"/>
       <use x="63.623046875" xlink:href="#BitstreamVeraSans-Roman-2e"/>
       <use x="95.41015625" xlink:href="#BitstreamVeraSans-Roman-30"/>
       <use x="159.033203125" xlink:href="#BitstreamVeraSans-Roman-34"/>
      </g>
     </g>
    </g>
    <g id="ytick_6">
     <g id="line2d_28">
      <path clip-path="url(#pfdb0b00072)" d="M 65.3 131.7  L 481.8875 131.7  " style="fill:none;opacity:0.4;stroke:#000000;stroke-dasharray:1.000000,3.000000;stroke-dashoffset:0.0;stroke-width:0.5;"/>
     </g>
     <g id="line2d_29">
      <g>
       <use style="stroke:#000000;stroke-width:0.5;" x="65.3" xlink:href="#m0f0e7a2405" y="131.7"/>
      </g>
     </g>
     <g id="text_13">
      <!-- 0.05 -->
      <g transform="translate(28.58125 135.01125)scale(0.12 -0.12)">
       <use xlink:href="#BitstreamVeraSans-Roman-30"/>
       <use x="63.623046875" xlink:href="#BitstreamVeraSans-Roman-2e"/>
       <use x="95.41015625" xlink:href="#BitstreamVeraSans-Roman-30"/>
       <use x="159.033203125" xlink:href="#BitstreamVeraSans-Roman-35"/>
      </g>
     </g>
    </g>
    <g id="ytick_7">
     <g id="line2d_30">
      <path clip-path="url(#pfdb0b00072)" d="M 65.3 96.4  L 481.8875 96.4  " style="fill:none;opacity:0.4;stroke:#000000;stroke-dasharray:1.000000,3.000000;stroke-dashoffset:0.0;stroke-width:0.5;"/>
     </g>
     <g id="line2d_31">
      <g>
       <use style="stroke:#000000;stroke-width:0.5;" x="65.3" xlink:href="#m0f0e7a2405" y="96.4"/>
      </g>
     </g>
     <g id="text_14">
      <!-- 0.06 -->
      <defs>
       <path d="M 33.015625 40.375  Q 26.375 40.375 22.484375 35.828125  Q 18.609375 31.296875 18.609375 23.390625  Q 18.609375 15.53125 22.484375 10.953125  Q 26.375 6.390625 33.015625 6.390625  Q 39.65625 6.390625 43.53125 10.953125  Q 47.40625 15.53125 47.40625 23.390625  Q 47.40625 31.296875 43.53125 35.828125  Q 39.65625 40.375 33.015625 40.375  M 52.59375 71.296875  L 52.59375 62.3125  Q 48.875 64.0625 45.09375 64.984375  Q 41.3125 65.921875 37.59375 65.921875  Q 27.828125 65.921875 22.671875 59.328125  Q 17.53125 52.734375 16.796875 39.40625  Q 19.671875 43.65625 24.015625 45.921875  Q 28.375 48.1875 33.59375 48.1875  Q 44.578125 48.1875 50.953125 41.515625  Q 57.328125 34.859375 57.328125 23.390625  Q 57.328125 12.15625 50.6875 5.359375  Q 44.046875 -1.421875 33.015625 -1.421875  Q 20.359375 -1.421875 13.671875 8.265625  Q 6.984375 17.96875 6.984375 36.375  Q 6.984375 53.65625 15.1875 63.9375  Q 23.390625 74.21875 37.203125 74.21875  Q 40.921875 74.21875 44.703125 73.484375  Q 48.484375 72.75 52.59375 71.296875  " id="BitstreamVeraSans-Roman-36"/>
      </defs>
      <g transform="translate(28.58125 99.71125)scale(0.12 -0.12)">
       <use xlink:href="#BitstreamVeraSans-Roman-30"/>
       <use x="63.623046875" xlink:href="#BitstreamVeraSans-Roman-2e"/>
       <use x="95.41015625" xlink:href="#BitstreamVeraSans-Roman-30"/>
       <use x="159.033203125" xlink:href="#BitstreamVeraSans-Roman-36"/>
      </g>
     </g>
    </g>
    <g id="ytick_8">
     <g id="line2d_32">
      <path clip-path="url(#pfdb0b00072)" d="M 65.3 61.1  L 481.8875 61.1  " style="fill:none;opacity:0.4;stroke:#000000;stroke-dasharray:1.000000,3.000000;stroke-dashoffset:0.0;stroke-width:0.5;"/>
     </g>
     <g id="line2d_33">
      <g>
       <use style="stroke:#000000;stroke-width:0.5;" x="65.3" xlink:href="#m0f0e7a2405" y="61.1"/>
      </g>
     </g>
     <g id="text_15">
      <!-- 0.07 -->
      <g transform="translate(28.58125 64.41125)scale(0.12 -0.12)">
       <use xlink:href="#BitstreamVeraSans-Roman-30"/>
       <use x="63.623046875" xlink:href="#BitstreamVeraSans-Roman-2e"/>
       <use x="95.41015625" xlink:href="#BitstreamVeraSans-Roman-30"/>
       <use x="159.033203125" xlink:href="#BitstreamVeraSans-Roman-37"/>
      </g>
     </g>
    </g>
    <g id="ytick_9">
     <g id="line2d_34">
      <path clip-path="url(#pfdb0b00072)" d="M 65.3 25.8  L 481.8875 25.8  " style="fill:none;opacity:0.4;stroke:#000000;stroke-dasharray:1.000000,3.000000;stroke-dashoffset:0.0;stroke-width:0.5;"/>
     </g>
     <g id="line2d_35">
      <g>
       <use style="stroke:#000000;stroke-width:0.5;" x="65.3" xlink:href="#m0f0e7a2405" y="25.8"/>
      </g>
     </g>
     <g id="text_16">
      <!-- 0.08 -->
      <defs>
       <path d="M 31.78125 34.625  Q 24.75 34.625 20.71875 30.859375  Q 16.703125 27.09375 16.703125 20.515625  Q 16.703125 13.921875 20.71875 10.15625  Q 24.75 6.390625 31.78125 6.390625  Q 38.8125 6.390625 42.859375 10.171875  Q 46.921875 13.96875 46.921875 20.515625  Q 46.921875 27.09375 42.890625 30.859375  Q 38.875 34.625 31.78125 34.625  M 21.921875 38.8125  Q 15.578125 40.375 12.03125 44.71875  Q 8.5 49.078125 8.5 55.328125  Q 8.5 64.0625 14.71875 69.140625  Q 20.953125 74.21875 31.78125 74.21875  Q 42.671875 74.21875 48.875 69.140625  Q 55.078125 64.0625 55.078125 55.328125  Q 55.078125 49.078125 51.53125 44.71875  Q 48 40.375 41.703125 38.8125  Q 48.828125 37.15625 52.796875 32.3125  Q 56.78125 27.484375 56.78125 20.515625  Q 56.78125 9.90625 50.3125 4.234375  Q 43.84375 -1.421875 31.78125 -1.421875  Q 19.734375 -1.421875 13.25 4.234375  Q 6.78125 9.90625 6.78125 20.515625  Q 6.78125 27.484375 10.78125 32.3125  Q 14.796875 37.15625 21.921875 38.8125  M 18.3125 54.390625  Q 18.3125 48.734375 21.84375 45.5625  Q 25.390625 42.390625 31.78125 42.390625  Q 38.140625 42.390625 41.71875 45.5625  Q 45.3125 48.734375 45.3125 54.390625  Q 45.3125 60.0625 41.71875 63.234375  Q 38.140625 66.40625 31.78125 66.40625  Q 25.390625 66.40625 21.84375 63.234375  Q 18.3125 60.0625 18.3125 54.390625  " id="BitstreamVeraSans-Roman-38"/>
      </defs>
      <g transform="translate(28.58125 29.11125)scale(0.12 -0.12)">
       <use xlink:href="#BitstreamVeraSans-Roman-30"/>
       <use x="63.623046875" xlink:href="#BitstreamVeraSans-Roman-2e"/>
       <use x="95.41015625" xlink:href="#BitstreamVeraSans-Roman-30"/>
       <use x="159.033203125" xlink:href="#BitstreamVeraSans-Roman-38"/>
      </g>
     </g>
    </g>
    <g id="text_17">
     <!-- Gamma -->
     <defs>
      <path d="M 59.078125 45.609375  Q 62.40625 50.6875 66.96875 53.34375  Q 71.53125 56 77 56  Q 86.421875 56 91.359375 50.1875  Q 96.296875 44.390625 96.296875 33.296875  L 96.296875 0  L 78.71875 0  L 78.71875 28.515625  Q 78.765625 29.15625 78.78125 29.828125  Q 78.8125 30.515625 78.8125 31.78125  Q 78.8125 37.59375 77.09375 40.203125  Q 75.390625 42.828125 71.578125 42.828125  Q 66.609375 42.828125 63.890625 38.71875  Q 61.1875 34.625 61.078125 26.859375  L 61.078125 0  L 43.5 0  L 43.5 28.515625  Q 43.5 37.59375 41.9375 40.203125  Q 40.375 42.828125 36.375 42.828125  Q 31.34375 42.828125 28.609375 38.703125  Q 25.875 34.578125 25.875 26.90625  L 25.875 0  L 8.296875 0  L 8.296875 54.6875  L 25.875 54.6875  L 25.875 46.6875  Q 29.109375 51.3125 33.28125 53.65625  Q 37.453125 56 42.484375 56  Q 48.140625 56 52.484375 53.265625  Q 56.84375 50.53125 59.078125 45.609375  " id="BitstreamVeraSans-Bold-6d"/>
      <path d="M 74.703125 5.421875  Q 67.671875 2 60.109375 0.28125  Q 52.546875 -1.421875 44.484375 -1.421875  Q 26.265625 -1.421875 15.625 8.765625  Q 4.984375 18.953125 4.984375 36.375  Q 4.984375 54 15.8125 64.109375  Q 26.65625 74.21875 45.515625 74.21875  Q 52.78125 74.21875 59.4375 72.84375  Q 66.109375 71.484375 72.015625 68.796875  L 72.015625 53.71875  Q 65.921875 57.171875 59.890625 58.875  Q 53.859375 60.59375 47.796875 60.59375  Q 36.578125 60.59375 30.5 54.3125  Q 24.421875 48.046875 24.421875 36.375  Q 24.421875 24.8125 30.28125 18.5  Q 36.140625 12.203125 46.921875 12.203125  Q 49.859375 12.203125 52.375 12.5625  Q 54.890625 12.9375 56.890625 13.71875  L 56.890625 27.875  L 45.40625 27.875  L 45.40625 40.484375  L 74.703125 40.484375  z " id="BitstreamVeraSans-Bold-47"/>
      <path d="M 32.90625 24.609375  Q 27.4375 24.609375 24.671875 22.75  Q 21.921875 20.90625 21.921875 17.28125  Q 21.921875 13.96875 24.140625 12.078125  Q 26.375 10.203125 30.328125 10.203125  Q 35.25 10.203125 38.625 13.734375  Q 42 17.28125 42 22.609375  L 42 24.609375  z M 59.625 31.203125  L 59.625 0  L 42 0  L 42 8.109375  Q 38.484375 3.125 34.078125 0.84375  Q 29.6875 -1.421875 23.390625 -1.421875  Q 14.890625 -1.421875 9.59375 3.53125  Q 4.296875 8.5 4.296875 16.40625  Q 4.296875 26.03125 10.90625 30.515625  Q 17.53125 35.015625 31.6875 35.015625  L 42 35.015625  L 42 36.375  Q 42 40.53125 38.71875 42.453125  Q 35.453125 44.390625 28.515625 44.390625  Q 22.90625 44.390625 18.0625 43.265625  Q 13.234375 42.140625 9.078125 39.890625  L 9.078125 53.21875  Q 14.703125 54.59375 20.359375 55.296875  Q 26.03125 56 31.6875 56  Q 46.484375 56 53.046875 50.171875  Q 59.625 44.34375 59.625 31.203125  " id="BitstreamVeraSans-Bold-61"/>
     </defs>
     <g transform="translate(21.085625 192.5271875)rotate(-90.0)scale(0.12 -0.12)">
      <use xlink:href="#BitstreamVeraSans-Bold-47"/>
      <use x="82.080078125" xlink:href="#BitstreamVeraSans-Bold-61"/>
      <use x="149.560546875" xlink:href="#BitstreamVeraSans-Bold-6d"/>
      <use x="253.759765625" xlink:href="#BitstreamVeraSans-Bold-6d"/>
      <use x="357.958984375" xlink:href="#BitstreamVeraSans-Bold-61"/>
     </g>
    </g>
   </g>
   <g id="text_18">
    <!-- Gamma vs. Days to Expiration -->
    <defs>
     <path d="M 27.984375 58.6875  L 27.984375 14.203125  L 34.71875 14.203125  Q 46.234375 14.203125 52.3125 19.921875  Q 58.40625 25.640625 58.40625 36.53125  Q 58.40625 47.359375 52.34375 53.015625  Q 46.296875 58.6875 34.71875 58.6875  z M 9.1875 72.90625  L 29 72.90625  Q 45.609375 72.90625 53.734375 70.53125  Q 61.859375 68.171875 67.671875 62.5  Q 72.796875 57.5625 75.28125 51.109375  Q 77.78125 44.671875 77.78125 36.53125  Q 77.78125 28.265625 75.28125 21.796875  Q 72.796875 15.328125 67.671875 10.40625  Q 61.8125 4.734375 53.609375 2.359375  Q 45.40625 0 29 0  L 9.1875 0  z " id="BitstreamVeraSans-Bold-44"/>
     <path d="M 51.125 52.984375  L 51.125 39.703125  Q 45.515625 42.046875 40.28125 43.21875  Q 35.0625 44.390625 30.421875 44.390625  Q 25.4375 44.390625 23.015625 43.140625  Q 20.609375 41.890625 20.609375 39.3125  Q 20.609375 37.203125 22.4375 36.078125  Q 24.265625 34.96875 29 34.421875  L 32.078125 33.984375  Q 45.515625 32.28125 50.140625 28.375  Q 54.78125 24.46875 54.78125 16.109375  Q 54.78125 7.375 48.328125 2.96875  Q 41.890625 -1.421875 29.109375 -1.421875  Q 23.6875 -1.421875 17.890625 -0.5625  Q 12.109375 0.296875 6 2  L 6 15.28125  Q 11.234375 12.75 16.71875 11.46875  Q 22.21875 10.203125 27.875 10.203125  Q 33.015625 10.203125 35.59375 11.609375  Q 38.1875 13.03125 38.1875 15.828125  Q 38.1875 18.171875 36.40625 19.3125  Q 34.625 20.453125 29.296875 21.09375  L 26.21875 21.484375  Q 14.546875 22.953125 9.859375 26.90625  Q 5.171875 30.859375 5.171875 38.921875  Q 5.171875 47.609375 11.125 51.796875  Q 17.09375 56 29.390625 56  Q 34.234375 56 39.546875 55.265625  Q 44.875 54.546875 51.125 52.984375  " id="BitstreamVeraSans-Bold-73"/>
     <path d="M 9.1875 72.90625  L 59.90625 72.90625  L 59.90625 58.6875  L 27.984375 58.6875  L 27.984375 45.125  L 58.015625 45.125  L 58.015625 30.90625  L 27.984375 30.90625  L 27.984375 14.203125  L 60.984375 14.203125  L 60.984375 0  L 9.1875 0  z " id="BitstreamVeraSans-Bold-45"/>
     <path d="M 22.21875 27.984375  L 2.484375 54.6875  L 21 54.6875  L 32.171875 38.484375  L 43.5 54.6875  L 62.015625 54.6875  L 42.28125 28.078125  L 62.984375 0  L 44.484375 0  L 32.171875 17.28125  L 20.015625 0  L 1.515625 0  z " id="BitstreamVeraSans-Bold-78"/>
     <path d="M 10.203125 18.890625  L 27.78125 18.890625  L 27.78125 0  L 10.203125 0  z " id="BitstreamVeraSans-Bold-2e"/>
     <path d="M 34.421875 43.5  Q 28.609375 43.5 25.5625 39.328125  Q 22.515625 35.15625 22.515625 27.296875  Q 22.515625 19.4375 25.5625 15.25  Q 28.609375 11.078125 34.421875 11.078125  Q 40.140625 11.078125 43.15625 15.25  Q 46.1875 19.4375 46.1875 27.296875  Q 46.1875 35.15625 43.15625 39.328125  Q 40.140625 43.5 34.421875 43.5  M 34.421875 56  Q 48.53125 56 56.46875 48.375  Q 64.40625 40.765625 64.40625 27.296875  Q 64.40625 13.8125 56.46875 6.1875  Q 48.53125 -1.421875 34.421875 -1.421875  Q 20.265625 -1.421875 12.28125 6.1875  Q 4.296875 13.8125 4.296875 27.296875  Q 4.296875 40.765625 12.28125 48.375  Q 20.265625 56 34.421875 56  " id="BitstreamVeraSans-Bold-6f"/>
     <path d="M 63.375 33.296875  L 63.375 0  L 45.796875 0  L 45.796875 5.421875  L 45.796875 25.484375  Q 45.796875 32.5625 45.484375 35.25  Q 45.171875 37.9375 44.390625 39.203125  Q 43.359375 40.921875 41.59375 41.875  Q 39.84375 42.828125 37.59375 42.828125  Q 32.125 42.828125 29 38.59375  Q 25.875 34.375 25.875 26.90625  L 25.875 0  L 8.40625 0  L 8.40625 54.6875  L 25.875 54.6875  L 25.875 46.6875  Q 29.828125 51.46875 34.265625 53.734375  Q 38.71875 56 44.09375 56  Q 53.5625 56 58.46875 50.1875  Q 63.375 44.390625 63.375 33.296875  " id="BitstreamVeraSans-Bold-6e"/>
     <path d="M 1.515625 54.6875  L 19 54.6875  L 32.625 16.890625  L 46.1875 54.6875  L 63.71875 54.6875  L 42.1875 0  L 23 0  z " id="BitstreamVeraSans-Bold-76"/>
     <path d="M 25.875 7.90625  L 25.875 -20.796875  L 8.40625 -20.796875  L 8.40625 54.6875  L 25.875 54.6875  L 25.875 46.6875  Q 29.5 51.46875 33.890625 53.734375  Q 38.28125 56 44 56  Q 54.109375 56 60.59375 47.96875  Q 67.09375 39.9375 67.09375 27.296875  Q 67.09375 14.65625 60.59375 6.609375  Q 54.109375 -1.421875 44 -1.421875  Q 38.28125 -1.421875 33.890625 0.84375  Q 29.5 3.125 25.875 7.90625  M 37.5 43.3125  Q 31.890625 43.3125 28.875 39.1875  Q 25.875 35.0625 25.875 27.296875  Q 25.875 19.53125 28.875 15.40625  Q 31.890625 11.28125 37.5 11.28125  Q 43.109375 11.28125 46.0625 15.375  Q 49.03125 19.484375 49.03125 27.296875  Q 49.03125 35.109375 46.0625 39.203125  Q 43.109375 43.3125 37.5 43.3125  " id="BitstreamVeraSans-Bold-70"/>
     <path d="M 1.21875 54.6875  L 18.703125 54.6875  L 33.40625 17.578125  L 45.90625 54.6875  L 63.375 54.6875  L 40.375 -5.171875  Q 36.921875 -14.3125 32.296875 -17.9375  Q 27.6875 -21.578125 20.125 -21.578125  L 10.015625 -21.578125  L 10.015625 -10.109375  L 15.484375 -10.109375  Q 19.921875 -10.109375 21.9375 -8.6875  Q 23.96875 -7.28125 25.09375 -3.609375  L 25.59375 -2.09375  z " id="BitstreamVeraSans-Bold-79"/>
    </defs>
    <g transform="translate(171.8046875 20.8)scale(0.12 -0.12)">
     <use xlink:href="#BitstreamVeraSans-Bold-47"/>
     <use x="82.080078125" xlink:href="#BitstreamVeraSans-Bold-61"/>
     <use x="149.560546875" xlink:href="#BitstreamVeraSans-Bold-6d"/>
     <use x="253.759765625" xlink:href="#BitstreamVeraSans-Bold-6d"/>
     <use x="357.958984375" xlink:href="#BitstreamVeraSans-Bold-61"/>
     <use x="425.439453125" xlink:href="#BitstreamVeraSans-Bold-20"/>
     <use x="460.25390625" xlink:href="#BitstreamVeraSans-Bold-76"/>
     <use x="525.439453125" xlink:href="#BitstreamVeraSans-Bold-73"/>
     <use x="584.9609375" xlink:href="#BitstreamVeraSans-Bold-2e"/>
     <use x="622.94921875" xlink:href="#BitstreamVeraSans-Bold-20"/>
     <use x="657.763671875" xlink:href="#BitstreamVeraSans-Bold-44"/>
     <use x="740.771484375" xlink:href="#BitstreamVeraSans-Bold-61"/>
     <use x="808.205078125" xlink:href="#BitstreamVeraSans-Bold-79"/>
     <use x="873.390625" xlink:href="#BitstreamVeraSans-Bold-73"/>
     <use x="932.912109375" xlink:href="#BitstreamVeraSans-Bold-20"/>
     <use x="967.7265625" xlink:href="#BitstreamVeraSans-Bold-74"/>
     <use x="1015.529296875" xlink:href="#BitstreamVeraSans-Bold-6f"/>
     <use x="1084.23046875" xlink:href="#BitstreamVeraSans-Bold-20"/>
     <use x="1119.044921875" xlink:href="#BitstreamVeraSans-Bold-45"/>
     <use x="1187.35546875" xlink:href="#BitstreamVeraSans-Bold-78"/>
     <use x="1251.857421875" xlink:href="#BitstreamVeraSans-Bold-70"/>
     <use x="1323.439453125" xlink:href="#BitstreamVeraSans-Bold-69"/>
     <use x="1357.716796875" xlink:href="#BitstreamVeraSans-Bold-72"/>
     <use x="1407.033203125" xlink:href="#BitstreamVeraSans-Bold-61"/>
     <use x="1474.513671875" xlink:href="#BitstreamVeraSans-Bold-74"/>
     <use x="1522.31640625" xlink:href="#BitstreamVeraSans-Bold-69"/>
     <use x="1556.59375" xlink:href="#BitstreamVeraSans-Bold-6f"/>
     <use x="1625.294921875" xlink:href="#BitstreamVeraSans-Bold-6e"/>
    </g>
   </g>
   <g id="legend_1">
    <g id="patch_3">
     <path d="M 73 115.329688  L 222.589688 115.329688  Q 224.789688 115.329688 224.789688 113.129688  L 224.789688 33.5  Q 224.789688 31.3 222.589688 31.3  L 73 31.3  Q 70.8 31.3 70.8 33.5  L 70.8 113.129688  Q 70.8 115.329688 73 115.329688  z " style="fill:#ffffff;opacity:0.5;stroke:#000000;stroke-linejoin:miter;"/>
    </g>
    <g id="line2d_36">
     <path d="M 78.5 40.208281  L 96.1 40.208281  " style="fill:none;stroke:#000000;stroke-dasharray:6.000000,6.000000;stroke-dashoffset:0.0;stroke-width:2.0;"/>
    </g>
    <g id="line2d_37"/>
    <g id="text_19">
     <!-- At-The-Money Strike -->
     <defs>
      <path d="M 34.1875 63.1875  L 20.796875 26.90625  L 47.609375 26.90625  z M 28.609375 72.90625  L 39.796875 72.90625  L 67.578125 0  L 57.328125 0  L 50.6875 18.703125  L 17.828125 18.703125  L 11.1875 0  L 0.78125 0  z " id="BitstreamVeraSans-Roman-41"/>
      <path d="M -0.296875 72.90625  L 61.375 72.90625  L 61.375 64.59375  L 35.5 64.59375  L 35.5 0  L 25.59375 0  L 25.59375 64.59375  L -0.296875 64.59375  z " id="BitstreamVeraSans-Roman-54"/>
      <path d="M 56.203125 29.59375  L 56.203125 25.203125  L 14.890625 25.203125  Q 15.484375 15.921875 20.484375 11.0625  Q 25.484375 6.203125 34.421875 6.203125  Q 39.59375 6.203125 44.453125 7.46875  Q 49.3125 8.734375 54.109375 11.28125  L 54.109375 2.78125  Q 49.265625 0.734375 44.1875 -0.34375  Q 39.109375 -1.421875 33.890625 -1.421875  Q 20.796875 -1.421875 13.15625 6.1875  Q 5.515625 13.8125 5.515625 26.8125  Q 5.515625 40.234375 12.765625 48.109375  Q 20.015625 56 32.328125 56  Q 43.359375 56 49.78125 48.890625  Q 56.203125 41.796875 56.203125 29.59375  M 47.21875 32.234375  Q 47.125 39.59375 43.09375 43.984375  Q 39.0625 48.390625 32.421875 48.390625  Q 24.90625 48.390625 20.390625 44.140625  Q 15.875 39.890625 15.1875 32.171875  z " id="BitstreamVeraSans-Roman-65"/>
      <path d="M 4.890625 31.390625  L 31.203125 31.390625  L 31.203125 23.390625  L 4.890625 23.390625  z " id="BitstreamVeraSans-Roman-2d"/>
      <path d="M 9.8125 72.90625  L 24.515625 72.90625  L 43.109375 23.296875  L 61.8125 72.90625  L 76.515625 72.90625  L 76.515625 0  L 66.890625 0  L 66.890625 64.015625  L 48.09375 14.015625  L 38.1875 14.015625  L 19.390625 64.015625  L 19.390625 0  L 9.8125 0  z " id="BitstreamVeraSans-Roman-4d"/>
      <path d="M 18.3125 70.21875  L 18.3125 54.6875  L 36.8125 54.6875  L 36.8125 47.703125  L 18.3125 47.703125  L 18.3125 18.015625  Q 18.3125 11.328125 20.140625 9.421875  Q 21.96875 7.515625 27.59375 7.515625  L 36.8125 7.515625  L 36.8125 0  L 27.59375 0  Q 17.1875 0 13.234375 3.875  Q 9.28125 7.765625 9.28125 18.015625  L 9.28125 47.703125  L 2.6875 47.703125  L 2.6875 54.6875  L 9.28125 54.6875  L 9.28125 70.21875  z " id="BitstreamVeraSans-Roman-74"/>
      <path d="M 30.609375 48.390625  Q 23.390625 48.390625 19.1875 42.75  Q 14.984375 37.109375 14.984375 27.296875  Q 14.984375 17.484375 19.15625 11.84375  Q 23.34375 6.203125 30.609375 6.203125  Q 37.796875 6.203125 41.984375 11.859375  Q 46.1875 17.53125 46.1875 27.296875  Q 46.1875 37.015625 41.984375 42.703125  Q 37.796875 48.390625 30.609375 48.390625  M 30.609375 56  Q 42.328125 56 49.015625 48.375  Q 55.71875 40.765625 55.71875 27.296875  Q 55.71875 13.875 49.015625 6.21875  Q 42.328125 -1.421875 30.609375 -1.421875  Q 18.84375 -1.421875 12.171875 6.21875  Q 5.515625 13.875 5.515625 27.296875  Q 5.515625 40.765625 12.171875 48.375  Q 18.84375 56 30.609375 56  " id="BitstreamVeraSans-Roman-6f"/>
      <path d="M 9.078125 75.984375  L 18.109375 75.984375  L 18.109375 31.109375  L 44.921875 54.6875  L 56.390625 54.6875  L 27.390625 29.109375  L 57.625 0  L 45.90625 0  L 18.109375 26.703125  L 18.109375 0  L 9.078125 0  z " id="BitstreamVeraSans-Roman-6b"/>
      <path d="M 54.890625 33.015625  L 54.890625 0  L 45.90625 0  L 45.90625 32.71875  Q 45.90625 40.484375 42.875 44.328125  Q 39.84375 48.1875 33.796875 48.1875  Q 26.515625 48.1875 22.3125 43.546875  Q 18.109375 38.921875 18.109375 30.90625  L 18.109375 0  L 9.078125 0  L 9.078125 54.6875  L 18.109375 54.6875  L 18.109375 46.1875  Q 21.34375 51.125 25.703125 53.5625  Q 30.078125 56 35.796875 56  Q 45.21875 56 50.046875 50.171875  Q 54.890625 44.34375 54.890625 33.015625  " id="BitstreamVeraSans-Roman-6e"/>
      <path d="M 9.421875 54.6875  L 18.40625 54.6875  L 18.40625 0  L 9.421875 0  z M 9.421875 75.984375  L 18.40625 75.984375  L 18.40625 64.59375  L 9.421875 64.59375  z " id="BitstreamVeraSans-Roman-69"/>
      <path d="M 54.890625 33.015625  L 54.890625 0  L 45.90625 0  L 45.90625 32.71875  Q 45.90625 40.484375 42.875 44.328125  Q 39.84375 48.1875 33.796875 48.1875  Q 26.515625 48.1875 22.3125 43.546875  Q 18.109375 38.921875 18.109375 30.90625  L 18.109375 0  L 9.078125 0  L 9.078125 75.984375  L 18.109375 75.984375  L 18.109375 46.1875  Q 21.34375 51.125 25.703125 53.5625  Q 30.078125 56 35.796875 56  Q 45.21875 56 50.046875 50.171875  Q 54.890625 44.34375 54.890625 33.015625  " id="BitstreamVeraSans-Roman-68"/>
      <path id="BitstreamVeraSans-Roman-20"/>
      <path d="M 32.171875 -5.078125  Q 28.375 -14.84375 24.75 -17.8125  Q 21.140625 -20.796875 15.09375 -20.796875  L 7.90625 -20.796875  L 7.90625 -13.28125  L 13.1875 -13.28125  Q 16.890625 -13.28125 18.9375 -11.515625  Q 21 -9.765625 23.484375 -3.21875  L 25.09375 0.875  L 2.984375 54.6875  L 12.5 54.6875  L 29.59375 11.921875  L 46.6875 54.6875  L 56.203125 54.6875  z " id="BitstreamVeraSans-Roman-79"/>
      <path d="M 41.109375 46.296875  Q 39.59375 47.171875 37.8125 47.578125  Q 36.03125 48 33.890625 48  Q 26.265625 48 22.1875 43.046875  Q 18.109375 38.09375 18.109375 28.8125  L 18.109375 0  L 9.078125 0  L 9.078125 54.6875  L 18.109375 54.6875  L 18.109375 46.1875  Q 20.953125 51.171875 25.484375 53.578125  Q 30.03125 56 36.53125 56  Q 37.453125 56 38.578125 55.875  Q 39.703125 55.765625 41.0625 55.515625  z " id="BitstreamVeraSans-Roman-72"/>
      <path d="M 53.515625 70.515625  L 53.515625 60.890625  Q 47.90625 63.578125 42.921875 64.890625  Q 37.9375 66.21875 33.296875 66.21875  Q 25.25 66.21875 20.875 63.09375  Q 16.5 59.96875 16.5 54.203125  Q 16.5 49.359375 19.40625 46.890625  Q 22.3125 44.4375 30.421875 42.921875  L 36.375 41.703125  Q 47.40625 39.59375 52.65625 34.296875  Q 57.90625 29 57.90625 20.125  Q 57.90625 9.515625 50.796875 4.046875  Q 43.703125 -1.421875 29.984375 -1.421875  Q 24.8125 -1.421875 18.96875 -0.25  Q 13.140625 0.921875 6.890625 3.21875  L 6.890625 13.375  Q 12.890625 10.015625 18.65625 8.296875  Q 24.421875 6.59375 29.984375 6.59375  Q 38.421875 6.59375 43.015625 9.90625  Q 47.609375 13.234375 47.609375 19.390625  Q 47.609375 24.75 44.3125 27.78125  Q 41.015625 30.8125 33.5 32.328125  L 27.484375 33.5  Q 16.453125 35.6875 11.515625 40.375  Q 6.59375 45.0625 6.59375 53.421875  Q 6.59375 63.09375 13.40625 68.65625  Q 20.21875 74.21875 32.171875 74.21875  Q 37.3125 74.21875 42.625 73.28125  Q 47.953125 72.359375 53.515625 70.515625  " id="BitstreamVeraSans-Roman-53"/>
     </defs>
     <g transform="translate(108.2 44.05828125)scale(0.11 -0.11)">
      <use xlink:href="#BitstreamVeraSans-Roman-41"/>
      <use x="68.392578125" xlink:href="#BitstreamVeraSans-Roman-74"/>
      <use x="107.6015625" xlink:href="#BitstreamVeraSans-Roman-2d"/>
      <use x="143.544921875" xlink:href="#BitstreamVeraSans-Roman-54"/>
      <use x="204.62890625" xlink:href="#BitstreamVeraSans-Roman-68"/>
      <use x="268.0078125" xlink:href="#BitstreamVeraSans-Roman-65"/>
      <use x="329.53125" xlink:href="#BitstreamVeraSans-Roman-2d"/>
      <use x="365.615234375" xlink:href="#BitstreamVeraSans-Roman-4d"/>
      <use x="451.89453125" xlink:href="#BitstreamVeraSans-Roman-6f"/>
      <use x="513.076171875" xlink:href="#BitstreamVeraSans-Roman-6e"/>
      <use x="576.455078125" xlink:href="#BitstreamVeraSans-Roman-65"/>
      <use x="637.978515625" xlink:href="#BitstreamVeraSans-Roman-79"/>
      <use x="697.158203125" xlink:href="#BitstreamVeraSans-Roman-20"/>
      <use x="728.9453125" xlink:href="#BitstreamVeraSans-Roman-53"/>
      <use x="792.421875" xlink:href="#BitstreamVeraSans-Roman-74"/>
      <use x="831.630859375" xlink:href="#BitstreamVeraSans-Roman-72"/>
      <use x="872.744140625" xlink:href="#BitstreamVeraSans-Roman-69"/>
      <use x="900.52734375" xlink:href="#BitstreamVeraSans-Roman-6b"/>
      <use x="958.390625" xlink:href="#BitstreamVeraSans-Roman-65"/>
     </g>
    </g>
    <g id="patch_4">
     <path d="M 75.2 60.204219  L 99.4 60.204219  L 99.4 52.504219  L 75.2 52.504219  z " style="fill:#d73027;stroke:#d73027;stroke-linejoin:miter;"/>
    </g>
    <g id="text_20">
     <!-- 14 Days -->
     <defs>
      <path d="M 34.28125 27.484375  Q 23.390625 27.484375 19.1875 25  Q 14.984375 22.515625 14.984375 16.5  Q 14.984375 11.71875 18.140625 8.90625  Q 21.296875 6.109375 26.703125 6.109375  Q 34.1875 6.109375 38.703125 11.40625  Q 43.21875 16.703125 43.21875 25.484375  L 43.21875 27.484375  z M 52.203125 31.203125  L 52.203125 0  L 43.21875 0  L 43.21875 8.296875  Q 40.140625 3.328125 35.546875 0.953125  Q 30.953125 -1.421875 24.3125 -1.421875  Q 15.921875 -1.421875 10.953125 3.296875  Q 6 8.015625 6 15.921875  Q 6 25.140625 12.171875 29.828125  Q 18.359375 34.515625 30.609375 34.515625  L 43.21875 34.515625  L 43.21875 35.40625  Q 43.21875 41.609375 39.140625 45  Q 35.0625 48.390625 27.6875 48.390625  Q 23 48.390625 18.546875 47.265625  Q 14.109375 46.140625 10.015625 43.890625  L 10.015625 52.203125  Q 14.9375 54.109375 19.578125 55.046875  Q 24.21875 56 28.609375 56  Q 40.484375 56 46.34375 49.84375  Q 52.203125 43.703125 52.203125 31.203125  " id="BitstreamVeraSans-Roman-61"/>
      <path d="M 44.28125 53.078125  L 44.28125 44.578125  Q 40.484375 46.53125 36.375 47.5  Q 32.28125 48.484375 27.875 48.484375  Q 21.1875 48.484375 17.84375 46.4375  Q 14.5 44.390625 14.5 40.28125  Q 14.5 37.15625 16.890625 35.375  Q 19.28125 33.59375 26.515625 31.984375  L 29.59375 31.296875  Q 39.15625 29.25 43.1875 25.515625  Q 47.21875 21.78125 47.21875 15.09375  Q 47.21875 7.46875 41.1875 3.015625  Q 35.15625 -1.421875 24.609375 -1.421875  Q 20.21875 -1.421875 15.453125 -0.5625  Q 10.6875 0.296875 5.421875 2  L 5.421875 11.28125  Q 10.40625 8.6875 15.234375 7.390625  Q 20.0625 6.109375 24.8125 6.109375  Q 31.15625 6.109375 34.5625 8.28125  Q 37.984375 10.453125 37.984375 14.40625  Q 37.984375 18.0625 35.515625 20.015625  Q 33.0625 21.96875 24.703125 23.78125  L 21.578125 24.515625  Q 13.234375 26.265625 9.515625 29.90625  Q 5.8125 33.546875 5.8125 39.890625  Q 5.8125 47.609375 11.28125 51.796875  Q 16.75 56 26.8125 56  Q 31.78125 56 36.171875 55.265625  Q 40.578125 54.546875 44.28125 53.078125  " id="BitstreamVeraSans-Roman-73"/>
      <path d="M 19.671875 64.796875  L 19.671875 8.109375  L 31.59375 8.109375  Q 46.6875 8.109375 53.6875 14.9375  Q 60.6875 21.78125 60.6875 36.53125  Q 60.6875 51.171875 53.6875 57.984375  Q 46.6875 64.796875 31.59375 64.796875  z M 9.8125 72.90625  L 30.078125 72.90625  Q 51.265625 72.90625 61.171875 64.09375  Q 71.09375 55.28125 71.09375 36.53125  Q 71.09375 17.671875 61.125 8.828125  Q 51.171875 0 30.078125 0  L 9.8125 0  z " id="BitstreamVeraSans-Roman-44"/>
     </defs>
     <g transform="translate(108.2 60.20421875)scale(0.11 -0.11)">
      <use xlink:href="#BitstreamVeraSans-Roman-31"/>
      <use x="63.623046875" xlink:href="#BitstreamVeraSans-Roman-34"/>
      <use x="127.24609375" xlink:href="#BitstreamVeraSans-Roman-20"/>
      <use x="159.033203125" xlink:href="#BitstreamVeraSans-Roman-44"/>
      <use x="236.03515625" xlink:href="#BitstreamVeraSans-Roman-61"/>
      <use x="297.314453125" xlink:href="#BitstreamVeraSans-Roman-79"/>
      <use x="356.494140625" xlink:href="#BitstreamVeraSans-Roman-73"/>
     </g>
    </g>
    <g id="patch_5">
     <path d="M 75.2 76.350156  L 99.4 76.350156  L 99.4 68.650156  L 75.2 68.650156  z " style="fill:#247ba0;stroke:#247ba0;stroke-linejoin:miter;"/>
    </g>
    <g id="text_21">
     <!-- 42 Days -->
     <g transform="translate(108.2 76.35015625)scale(0.11 -0.11)">
      <use xlink:href="#BitstreamVeraSans-Roman-34"/>
      <use x="63.623046875" xlink:href="#BitstreamVeraSans-Roman-32"/>
      <use x="127.24609375" xlink:href="#BitstreamVeraSans-Roman-20"/>
      <use x="159.033203125" xlink:href="#BitstreamVeraSans-Roman-44"/>
      <use x="236.03515625" xlink:href="#BitstreamVeraSans-Roman-61"/>
      <use x="297.314453125" xlink:href="#BitstreamVeraSans-Roman-79"/>
      <use x="356.494140625" xlink:href="#BitstreamVeraSans-Roman-73"/>
     </g>
    </g>
    <g id="patch_6">
     <path d="M 75.2 92.496094  L 99.4 92.496094  L 99.4 84.796094  L 75.2 84.796094  z " style="fill:#2daf6e;stroke:#2daf6e;stroke-linejoin:miter;"/>
    </g>
    <g id="text_22">
     <!-- 77 Days -->
     <g transform="translate(108.2 92.49609375)scale(0.11 -0.11)">
      <use xlink:href="#BitstreamVeraSans-Roman-37"/>
      <use x="63.623046875" xlink:href="#BitstreamVeraSans-Roman-37"/>
      <use x="127.24609375" xlink:href="#BitstreamVeraSans-Roman-20"/>
      <use x="159.033203125" xlink:href="#BitstreamVeraSans-Roman-44"/>
      <use x="236.03515625" xlink:href="#BitstreamVeraSans-Roman-61"/>
      <use x="297.314453125" xlink:href="#BitstreamVeraSans-Roman-79"/>
      <use x="356.494140625" xlink:href="#BitstreamVeraSans-Roman-73"/>
     </g>
    </g>
    <g id="patch_7">
     <path d="M 75.2 108.642031  L 99.4 108.642031  L 99.4 100.942031  L 75.2 100.942031  z " style="fill:#364652;stroke:#364652;stroke-linejoin:miter;"/>
    </g>
    <g id="text_23">
     <!-- 197 Days -->
     <g transform="translate(108.2 108.64203125)scale(0.11 -0.11)">
      <use xlink:href="#BitstreamVeraSans-Roman-31"/>
      <use x="63.623046875" xlink:href="#BitstreamVeraSans-Roman-39"/>
      <use x="127.24609375" xlink:href="#BitstreamVeraSans-Roman-37"/>
      <use x="190.869140625" xlink:href="#BitstreamVeraSans-Roman-20"/>
      <use x="222.65625" xlink:href="#BitstreamVeraSans-Roman-44"/>
      <use x="299.658203125" xlink:href="#BitstreamVeraSans-Roman-61"/>
      <use x="360.9375" xlink:href="#BitstreamVeraSans-Roman-79"/>
      <use x="420.1171875" xlink:href="#BitstreamVeraSans-Roman-73"/>
     </g>
    </g>
   </g>
  </g>
 </g>
 <defs>
  <clipPath id="pfdb0b00072">
   <rect height="282.4" width="416.5875" x="65.3" y="25.8"/>
  </clipPath>
 </defs>
</svg>